<?xml version="1.0" encoding="UTF-8" standalone="no"?>
<!-- Created with Inkscape (http://www.inkscape.org/) -->

<svg
   xmlns:dc="http://purl.org/dc/elements/1.1/"
   xmlns:cc="http://creativecommons.org/ns#"
   xmlns:rdf="http://www.w3.org/1999/02/22-rdf-syntax-ns#"
   xmlns:svg="http://www.w3.org/2000/svg"
   xmlns="http://www.w3.org/2000/svg"
   xmlns:sodipodi="http://sodipodi.sourceforge.net/DTD/sodipodi-0.dtd"
   xmlns:inkscape="http://www.inkscape.org/namespaces/inkscape"
   width="50"
   height="50.153999"
   viewBox="0 0 50.000001 50.154"
   id="svg4235"
   version="1.1"
   inkscape:version="0.91 r13725"
   sodipodi:docname="trains.svg">
  <defs
     id="defs4237" />
  <sodipodi:namedview
     id="base"
     pagecolor="#160e0e"
     bordercolor="#666666"
     borderopacity="1.0"
     inkscape:pageopacity="0"
     inkscape:pageshadow="2"
     inkscape:zoom="7.9195959"
     inkscape:cx="23.240574"
     inkscape:cy="43.251138"
     inkscape:document-units="px"
     inkscape:current-layer="layer1"
     showgrid="false"
     units="px"
     inkscape:window-width="1916"
     inkscape:window-height="1161"
     inkscape:window-x="3840"
     inkscape:window-y="18"
     inkscape:window-maximized="0"
     fit-margin-top="0"
     fit-margin-left="0"
     fit-margin-right="0"
     fit-margin-bottom="0" />
  <metadata
     id="metadata4240">
    <rdf:RDF>
      <cc:Work
         rdf:about="">
        <dc:format>image/svg+xml</dc:format>
        <dc:type
           rdf:resource="http://purl.org/dc/dcmitype/StillImage" />
        <dc:title></dc:title>
      </cc:Work>
    </rdf:RDF>
  </metadata>
  <g
     inkscape:label="Layer 1"
     inkscape:groupmode="layer"
     id="layer1"
     transform="translate(-0.84179681,-1001.3874)">
    <path
       style="opacity:1;fill:#ffffff;fill-opacity:1;stroke:none;stroke-width:11;stroke-linecap:square;stroke-miterlimit:0;stroke-dasharray:none;stroke-opacity:1"
       d="m 3.7992347,1001.3874 c -0.5070255,0 -0.9152492,0.4082 -0.9152492,0.9153 l 0,1.752 c 0,0.507 0.4082237,0.9153 0.9152492,0.9153 l 19.4742613,0 0.932682,0.5541 -7.455234,4.9922 1.765746,2.7607 -13.438597,0 0,0.01 -4.20142949,21.1305 -0.0348667,-0.018 c 0.0878052,0.4096 0.43430949,0.7222 0.87540169,0.7222 l 48.2093495,0 c 0.507026,0 0.915249,-0.4035 0.915249,-0.9052 l 0,-7.0082 -23.284686,0 c -0.60843,0 -1.097054,-0.4852 -1.097054,-1.0872 l 0,-0.5727 c 0,-0.6022 0.488624,-1.0859 1.097054,-1.0859 l 23.284686,0 0,-1.6375 -23.284686,0 c -0.60843,0 -1.097054,-0.4875 -1.097054,-1.0895 l 0,-0.5704 c 0,-0.6021 0.488624,-1.0858 1.097054,-1.0858 l 23.284686,0 0,-1.6413 -23.284686,0 c -0.60843,0 -1.097054,-0.4837 -1.097054,-1.0858 l 0,-0.5691 c 0,-0.6021 0.488624,-1.0896 1.097054,-1.0896 l 23.284686,0 0,-1.508 c 0,-0.5016 -0.408223,-0.9052 -0.915249,-0.9052 l -15.081065,0 1.84046,-2.8753 -7.272184,-4.8701 0.945135,-0.5616 19.221478,0 c 0.507025,0 0.915249,-0.4082 0.915249,-0.9153 l 0,-1.752 c 0,-0.507 -0.408224,-0.9153 -0.915249,-0.9153 l -45.7811373,0 z m 23.0169593,5.687 5.015815,2.9799 -3.451797,3.2227 -3.446816,0 -3.328518,-3.107 5.211316,-3.0956 z m -19.5041461,8.4352 6.9110661,0 c 0.07813,0 0.139465,0.1734 0.139465,0.3923 l 0,8.7067 c 0,0.2179 -0.06135,0.3923 -0.139465,0.3923 l -7.4290847,0 c -0.067964,0 -0.1221853,-0.1379 -0.1357305,-0.3151 l 0.00748,0.017 0.6462775,-9.1798 0,-0.014 z m 25.2384631,19.9687 a 5.6625625,5.6625625 0 0 0 -5.662092,5.6633 5.6625625,5.6625625 0 0 0 5.662092,5.6621 5.6625625,5.6625625 0 0 0 5.662093,-5.6621 5.6625625,5.6625625 0 0 0 -5.662093,-5.6633 z m -12.909372,0.2316 a 5.6625625,5.6625625 0 0 0 -5.663338,5.6621 5.6625625,5.6625625 0 0 0 5.663338,5.662 5.6625625,5.6625625 0 0 0 5.662093,-5.662 5.6625625,5.6625625 0 0 0 -5.662093,-5.6621 z m -17.8068883,0.2304 c -0.5070254,0 -0.91524914,0.4082 -0.91524914,0.9152 l 0,6.2598 c 0,0.5071 0.40822374,0.9152 0.91524914,0.9152 l 10.4201433,0 c 0.507025,0 0.915249,-0.4081 0.915249,-0.9152 l 0,-6.2598 c 0,-0.507 -0.408224,-0.9152 -0.915249,-0.9152 l -10.4201433,0 z m 38.4578983,0.078 c -0.507025,0 -0.915249,0.4083 -0.915249,0.9153 l 0,6.2598 c 0,0.507 0.408224,0.9153 0.915249,0.9153 l 8.917142,0 c 0.507026,0 0.915249,-0.4083 0.915249,-0.9153 l 0,-6.2598 c 0,-0.507 -0.408223,-0.9153 -0.915249,-0.9153 l -8.917142,0 z m -36.2613003,11.5932 c -0.5070254,0 -0.9152491,0.4082 -0.9152491,0.9152 l 0,2.0995 c 0,0.507 0.4082237,0.9152 0.9152491,0.9152 l 45.7811373,0 c 0.507025,0 0.915249,-0.4082 0.915249,-0.9152 l 0,-2.0995 c 0,-0.507 -0.408224,-0.9152 -0.915249,-0.9152 l -45.7811373,0 z"
       id="path4859"
       inkscape:connector-curvature="0" />
  </g>
</svg>
